# xmcd
# 
# Track frame offsets:
#     150
#     16016
#     34940
#     54616
#     75174
#     93133
#     125372
#     146319
#     167199
#     187534
#     204882
#     222437
# 
# Disc length: 3378
# 
# Revision: 2
# Processed by: cddbd v1.5.2PL0 Copyright (c) Steve Scherf et al.
# Submitted via: fre:ac v1.0.31
# 
DISCID=8a0d300c
DTITLE=Toronzo Cannon - The Preacher, The Politician Or The Pimp
DYEAR=2019
DGENRE=Blues
TTITLE0=Get Together Or Get Apart
TTITLE1=The Preacher, The Politician Or The Pimp
TTITLE2=The Chicago Way
TTITLE3=Insurance
TTITLE4=Stop Me When I'm Lying
TTITLE5=She Loved Me (Again)
TTITLE6=The Silence Of My Friends
TTITLE7=The First 24
TTITLE8=That's What I Love About 'Cha
TTITLE9=Ordinary Woman
TTITLE10=Let Me Lay My Love On You
TTITLE11=I'm Not Scared
EXTD=
EXTT0=
EXTT1=
EXTT2=
EXTT3=
EXTT4=
EXTT5=
EXTT6=
EXTT7=
EXTT8=
EXTT9=
EXTT10=
EXTT11=
PLAYORDER=
